Coordinates
version=1
nRows=54
nColumns=12
inDegrees=yes

Units are S.I. units (second, meters, Newtons, ...)
Angles are in degrees

endheader
time	SC_y	SC_z	SC_x	AC_y	AC_z	AC_x	GH_y	GH_z	GH_yy	EL_x	PS_y
       0.0              -11.75          28.57          68.77          34.79          7.965          2.829         -61.99          88.51         -78.21          53.55          90.25
   0.03862              -11.75          28.57          68.77           34.8          7.963          2.828         -61.95          88.51         -78.18          53.55          90.25
   0.07724              -11.76          28.57          68.77           34.8           7.96          2.827         -61.92           88.5         -78.15          53.56          90.25
    0.1159              -11.76          28.57          68.77           34.8          7.957          2.827         -61.88           88.5         -78.12          53.56          90.25
    0.1545              -11.77          28.57          68.76           34.8          7.953          2.826         -61.84          88.49         -78.09          53.57          90.25
    0.1931              -11.77          28.57          68.76          34.81           7.95          2.825         -61.79          88.48         -78.05          53.57          90.24
    0.2317              -11.78          28.57          68.76          34.81          7.946          2.824         -61.75          88.48         -78.01          53.58          90.24
    0.2703              -11.78          28.57          68.75          34.81          7.942          2.823          -61.7          88.47         -77.97          53.59          90.24
    0.3089              -11.79          28.57          68.75          34.82          7.938          2.822         -61.64          88.46         -77.93          53.59          90.24
    0.3476              -11.79          28.57          68.75          34.82          7.933          2.821         -61.59          88.45         -77.88           53.6          90.23
    0.3862               -11.8          28.57          68.74          34.82          7.928           2.82         -61.53          88.44         -77.83          53.61          90.23
    0.4248              -11.81          28.58          68.74          34.83          7.923          2.819         -61.46          88.43         -77.77          53.62          90.23
    0.4634              -11.81          28.58          68.73          34.83          7.917          2.818         -61.39          88.42         -77.71          53.63          90.22
     0.502              -11.82          28.58          68.73          34.84          7.911          2.816         -61.31          88.41         -77.65          53.64          90.22
    0.5407              -11.83          28.58          68.72          34.84          7.904          2.815         -61.23           88.4         -77.58          53.65          90.21
    0.5793              -11.84          28.58          68.72          34.85          7.897          2.813         -61.14          88.38          -77.5          53.66          90.21
    0.6179              -11.85          28.58          68.71          34.86          7.889          2.811         -61.04          88.37         -77.42          53.67           90.2
    0.6565              -11.86          28.58           68.7          34.86           7.88          2.809         -60.93          88.35         -77.33          53.69           90.2
    0.6951              -11.88          28.58          68.69          34.87          7.871          2.807         -60.81          88.33         -77.24           53.7          90.19
    0.7337              -11.89          28.59          68.69          34.88           7.86          2.805         -60.68          88.31         -77.13          53.72          90.19
    0.7724               -11.9          28.59          68.68          34.89          7.849          2.802         -60.54          88.29         -77.01          53.74          90.18
     0.811              -11.92          28.59          68.66           34.9          7.836            2.8         -60.39          88.27         -76.89          53.76          90.17
    0.8496              -11.94          28.59          68.65          34.91          7.823          2.797         -60.22          88.24         -76.74          53.78          90.16
    0.8882              -11.96           28.6          68.64          34.92          7.807          2.793         -60.03          88.21         -76.59          53.81          90.15
    0.9268              -11.98           28.6          68.63          34.94           7.79          2.789         -59.82          88.18         -76.41          53.84          90.14
    0.9655              -12.01           28.6          68.61          34.95          7.771          2.785         -59.58          88.14         -76.22          53.87          90.13
     1.004              -12.04          28.61          68.59          34.97           7.75           2.78         -59.32           88.1          -76.0           53.9          90.11
     1.043              -12.07          28.61          68.57          34.99          7.726          2.775         -59.02          88.06         -75.75          53.94           90.1
     1.081               -12.1          28.61          68.55          35.01          7.699          2.769         -58.68           88.0         -75.48          53.99          90.08
      1.12              -12.14          28.62          68.52          35.04          7.668          2.762          -58.3          87.95         -75.16          54.04          90.06
     1.159              -12.19          28.63          68.49          35.07          7.633          2.754         -57.87          87.88          -74.8          54.09          90.04
     1.197              -12.24          28.63          68.46           35.1          7.593          2.745         -57.37           87.8         -74.39          54.16          90.01
     1.236               -12.3          28.64          68.42          35.14          7.547          2.734          -56.8          87.71         -73.91          54.24          89.98
     1.274              -12.38          28.65          68.38          35.18          7.493          2.722         -56.13          87.61         -73.36          54.32          89.94
     1.313              -12.46          28.66          68.32          35.24           7.43          2.708         -55.34          87.49         -72.71          54.43           89.9
     1.352              -12.56          28.68          68.26           35.3          7.355          2.691         -54.42          87.35         -71.95          54.55          89.85
      1.39              -12.68          28.69          68.18          35.37          7.267          2.671         -53.32          87.18         -71.04          54.69          89.79
     1.429              -12.82          28.71           68.1          35.46          7.161          2.648         -52.01          86.98         -69.95          54.87          89.72
     1.467              -12.99          28.73          67.99          35.57          7.033          2.619         -50.42          86.73         -68.64          55.08          89.64
     1.506              -13.19          28.76          67.86           35.7          6.876          2.584         -48.48          86.43         -67.03          55.34          89.54
     1.545              -13.45          28.79          67.69          35.86          6.683           2.54         -46.08          86.06         -65.05          55.65          89.41
     1.583              -13.77          28.84          67.49          36.06          6.442          2.486         -43.09           85.6         -62.57          56.05          89.25
     1.622              -14.17          28.89          67.23          36.31          6.138          2.417         -39.32          85.02         -59.45          56.55          89.05
     1.661              -14.68          28.96          66.91          36.63          5.752          2.331         -34.54          84.28         -55.49          57.18           88.8
     1.699              -15.34          29.05          66.49          37.04          5.258          2.219         -28.41          83.34         -50.42          57.99          88.47
     1.738              -16.18          29.16          65.96          37.57          4.625          2.077         -20.54          82.12         -43.91          59.03          88.05
     1.776              -17.25           29.3          65.27          38.24          3.815          1.894          -10.5          80.58          -35.6          60.36          87.52
     1.815               -18.6          29.48          64.42          39.08          2.797          1.665          2.132          78.63         -25.15          62.03          86.85
     1.854              -20.24           29.7          63.37          40.11          1.556          1.386          17.52          76.26         -12.41          64.07          86.03
     1.892              -22.15          29.95          62.16          41.31         0.1179          1.062          35.37           73.5          2.351          66.43          85.08
     1.931              -24.21          30.23          60.85           42.6         -1.439         0.7118          54.68          70.53          18.34          68.98          84.06
      1.97              -26.27           30.5          59.53          43.89         -2.996         0.3613           74.0          67.55          34.32          71.54          83.03
     2.008              -28.18          30.76          58.32          45.08         -4.435        0.03762          91.84           64.8          49.09           73.9          82.09
     2.047              -29.82          30.98          57.27          46.11         -5.675        -0.2417          107.2          62.42          61.82          75.93          81.27
